<mxfile host="app.diagrams.net" agent="Mozilla/5.0 (Windows NT 10.0; Win64; x64) AppleWebKit/537.36 (KHTML, like Gecko) Chrome/131.0.0.0 Safari/537.36" version="26.0.6">
  <diagram name="페이지-1" id="ZPVpl0MalYBSn-rC9XUV">
    <mxGraphModel dx="1434" dy="1949" grid="1" gridSize="10" guides="1" tooltips="1" connect="1" arrows="1" fold="1" page="1" pageScale="1" pageWidth="827" pageHeight="1169" math="0" shadow="0">
      <root>
        <mxCell id="0" />
        <mxCell id="1" parent="0" />
        <mxCell id="ZrvgN2DBzf6jPBexT-yE-1" value="애완 용품 시스템" style="shape=umlFrame;whiteSpace=wrap;html=1;pointerEvents=0;width=120;height=30;" vertex="1" parent="1">
          <mxGeometry x="160" width="640" height="530" as="geometry" />
        </mxCell>
        <mxCell id="ZrvgN2DBzf6jPBexT-yE-2" value="비회원" style="shape=umlActor;verticalLabelPosition=bottom;verticalAlign=top;html=1;" vertex="1" parent="1">
          <mxGeometry x="90" y="100" width="30" height="60" as="geometry" />
        </mxCell>
        <mxCell id="ZrvgN2DBzf6jPBexT-yE-3" value="회원" style="shape=umlActor;verticalLabelPosition=bottom;verticalAlign=top;html=1;" vertex="1" parent="1">
          <mxGeometry x="80" y="460" width="30" height="60" as="geometry" />
        </mxCell>
        <mxCell id="ZrvgN2DBzf6jPBexT-yE-4" value="관리자" style="shape=umlActor;verticalLabelPosition=bottom;verticalAlign=top;html=1;" vertex="1" parent="1">
          <mxGeometry x="890" y="420" width="30" height="60" as="geometry" />
        </mxCell>
        <mxCell id="ZrvgN2DBzf6jPBexT-yE-5" value="판매자" style="shape=umlActor;verticalLabelPosition=bottom;verticalAlign=top;html=1;" vertex="1" parent="1">
          <mxGeometry x="890" y="30" width="30" height="60" as="geometry" />
        </mxCell>
        <mxCell id="ZrvgN2DBzf6jPBexT-yE-6" value="애완 용품 조회" style="ellipse;whiteSpace=wrap;html=1;" vertex="1" parent="1">
          <mxGeometry x="250" y="170" width="110" height="50" as="geometry" />
        </mxCell>
        <mxCell id="ZrvgN2DBzf6jPBexT-yE-7" value="애완 용품 구매" style="ellipse;whiteSpace=wrap;html=1;" vertex="1" parent="1">
          <mxGeometry x="252.5" y="240" width="105" height="50" as="geometry" />
        </mxCell>
        <mxCell id="ZrvgN2DBzf6jPBexT-yE-8" value="나의 구매&lt;div&gt;내역 조회&lt;/div&gt;" style="ellipse;whiteSpace=wrap;html=1;" vertex="1" parent="1">
          <mxGeometry x="252.5" y="310" width="105" height="50" as="geometry" />
        </mxCell>
        <mxCell id="ZrvgN2DBzf6jPBexT-yE-9" value="구매 취소" style="ellipse;whiteSpace=wrap;html=1;" vertex="1" parent="1">
          <mxGeometry x="255" y="380" width="105" height="50" as="geometry" />
        </mxCell>
        <mxCell id="ZrvgN2DBzf6jPBexT-yE-10" value="구매 내역 확정" style="ellipse;whiteSpace=wrap;html=1;" vertex="1" parent="1">
          <mxGeometry x="255" y="450" width="105" height="50" as="geometry" />
        </mxCell>
        <mxCell id="ZrvgN2DBzf6jPBexT-yE-11" value="USE" style="html=1;verticalAlign=bottom;endArrow=open;curved=0;rounded=0;entryX=0;entryY=0.5;entryDx=0;entryDy=0;endFill=0;exitX=0.5;exitY=0.5;exitDx=0;exitDy=0;exitPerimeter=0;" edge="1" parent="1" source="ZrvgN2DBzf6jPBexT-yE-2" target="ZrvgN2DBzf6jPBexT-yE-6">
          <mxGeometry x="-0.0083" width="80" relative="1" as="geometry">
            <mxPoint x="110" y="130" as="sourcePoint" />
            <mxPoint x="230" y="200" as="targetPoint" />
            <mxPoint as="offset" />
          </mxGeometry>
        </mxCell>
        <mxCell id="ZrvgN2DBzf6jPBexT-yE-12" value="USE" style="html=1;verticalAlign=bottom;endArrow=open;curved=0;rounded=0;entryX=0;entryY=0.5;entryDx=0;entryDy=0;endFill=0;" edge="1" parent="1" target="ZrvgN2DBzf6jPBexT-yE-7">
          <mxGeometry x="-0.0083" width="80" relative="1" as="geometry">
            <mxPoint x="130" y="460" as="sourcePoint" />
            <mxPoint x="220" y="430" as="targetPoint" />
            <mxPoint as="offset" />
          </mxGeometry>
        </mxCell>
        <mxCell id="ZrvgN2DBzf6jPBexT-yE-13" value="USE" style="html=1;verticalAlign=bottom;endArrow=open;curved=0;rounded=0;entryX=0;entryY=0.5;entryDx=0;entryDy=0;endFill=0;" edge="1" parent="1" target="ZrvgN2DBzf6jPBexT-yE-8">
          <mxGeometry x="-0.0083" width="80" relative="1" as="geometry">
            <mxPoint x="122" y="480" as="sourcePoint" />
            <mxPoint x="255" y="295" as="targetPoint" />
            <mxPoint as="offset" />
          </mxGeometry>
        </mxCell>
        <mxCell id="ZrvgN2DBzf6jPBexT-yE-14" value="USE" style="html=1;verticalAlign=bottom;endArrow=open;curved=0;rounded=0;entryX=0;entryY=0.5;entryDx=0;entryDy=0;endFill=0;" edge="1" parent="1" target="ZrvgN2DBzf6jPBexT-yE-9">
          <mxGeometry x="-0.0083" width="80" relative="1" as="geometry">
            <mxPoint x="130" y="480" as="sourcePoint" />
            <mxPoint x="273" y="285" as="targetPoint" />
            <mxPoint as="offset" />
          </mxGeometry>
        </mxCell>
        <mxCell id="ZrvgN2DBzf6jPBexT-yE-15" value="USE" style="html=1;verticalAlign=bottom;endArrow=open;curved=0;rounded=0;entryX=0;entryY=0.5;entryDx=0;entryDy=0;endFill=0;" edge="1" parent="1">
          <mxGeometry x="-0.0083" width="80" relative="1" as="geometry">
            <mxPoint x="130" y="490" as="sourcePoint" />
            <mxPoint x="255" y="470" as="targetPoint" />
            <mxPoint as="offset" />
          </mxGeometry>
        </mxCell>
        <mxCell id="ZrvgN2DBzf6jPBexT-yE-16" value="점선/실선 구분!!&lt;br&gt;화살표 모양 구분!!!&lt;div&gt;화살표 방향 구분!!&lt;/div&gt;&lt;div&gt;&amp;lt;&amp;lt;&amp;gt;&amp;gt; 구분!!!!!&lt;/div&gt;" style="text;html=1;align=center;verticalAlign=middle;resizable=0;points=[];autosize=1;strokeColor=none;fillColor=none;" vertex="1" parent="1">
          <mxGeometry x="414" y="-85" width="120" height="70" as="geometry" />
        </mxCell>
        <mxCell id="ZrvgN2DBzf6jPBexT-yE-17" value="전체&lt;br&gt;조회" style="ellipse;whiteSpace=wrap;html=1;" vertex="1" parent="1">
          <mxGeometry x="360" y="90" width="40" height="40" as="geometry" />
        </mxCell>
        <mxCell id="ZrvgN2DBzf6jPBexT-yE-18" value="키워드&lt;br&gt;조회" style="ellipse;whiteSpace=wrap;html=1;" vertex="1" parent="1">
          <mxGeometry x="230" y="100" width="40" height="40" as="geometry" />
        </mxCell>
        <mxCell id="ZrvgN2DBzf6jPBexT-yE-19" value="&amp;lt;&amp;lt;extends&amp;gt;&amp;gt;" style="endArrow=open;endSize=12;dashed=1;html=1;rounded=0;entryX=0.5;entryY=0;entryDx=0;entryDy=0;exitX=0.5;exitY=1;exitDx=0;exitDy=0;" edge="1" parent="1" source="ZrvgN2DBzf6jPBexT-yE-18" target="ZrvgN2DBzf6jPBexT-yE-6">
          <mxGeometry width="160" relative="1" as="geometry">
            <mxPoint x="390" y="154" as="sourcePoint" />
            <mxPoint x="370" y="205" as="targetPoint" />
          </mxGeometry>
        </mxCell>
        <mxCell id="ZrvgN2DBzf6jPBexT-yE-20" value="&amp;lt;&amp;lt;extends&amp;gt;&amp;gt;" style="endArrow=open;endSize=12;dashed=1;html=1;rounded=0;entryX=0.5;entryY=0;entryDx=0;entryDy=0;exitX=0;exitY=1;exitDx=0;exitDy=0;" edge="1" parent="1" source="ZrvgN2DBzf6jPBexT-yE-17" target="ZrvgN2DBzf6jPBexT-yE-6">
          <mxGeometry width="160" relative="1" as="geometry">
            <mxPoint x="400" y="164" as="sourcePoint" />
            <mxPoint x="380" y="215" as="targetPoint" />
          </mxGeometry>
        </mxCell>
        <mxCell id="ZrvgN2DBzf6jPBexT-yE-21" value="로그인" style="ellipse;whiteSpace=wrap;html=1;" vertex="1" parent="1">
          <mxGeometry x="480" y="210" width="40" height="40" as="geometry" />
        </mxCell>
        <mxCell id="ZrvgN2DBzf6jPBexT-yE-22" value="&amp;lt;&amp;lt;Include&amp;gt;&amp;gt;" style="endArrow=open;endSize=12;dashed=1;html=1;rounded=0;entryX=0;entryY=0.5;entryDx=0;entryDy=0;exitX=1;exitY=0.5;exitDx=0;exitDy=0;" edge="1" parent="1" source="ZrvgN2DBzf6jPBexT-yE-7" target="ZrvgN2DBzf6jPBexT-yE-21">
          <mxGeometry x="-0.1205" y="1" width="160" relative="1" as="geometry">
            <mxPoint x="515" y="330" as="sourcePoint" />
            <mxPoint x="414" y="290" as="targetPoint" />
            <mxPoint as="offset" />
          </mxGeometry>
        </mxCell>
        <mxCell id="ZrvgN2DBzf6jPBexT-yE-23" value="&amp;lt;&amp;lt;Include&amp;gt;&amp;gt;" style="endArrow=open;endSize=12;dashed=1;html=1;rounded=0;entryX=0;entryY=0.5;entryDx=0;entryDy=0;exitX=1;exitY=0.5;exitDx=0;exitDy=0;" edge="1" parent="1" source="ZrvgN2DBzf6jPBexT-yE-8" target="ZrvgN2DBzf6jPBexT-yE-21">
          <mxGeometry x="-0.1205" y="1" width="160" relative="1" as="geometry">
            <mxPoint x="368" y="275" as="sourcePoint" />
            <mxPoint x="490" y="240" as="targetPoint" />
            <mxPoint as="offset" />
          </mxGeometry>
        </mxCell>
        <mxCell id="ZrvgN2DBzf6jPBexT-yE-24" value="&amp;lt;&amp;lt;Include&amp;gt;&amp;gt;" style="endArrow=open;endSize=12;dashed=1;html=1;rounded=0;exitX=1;exitY=0.5;exitDx=0;exitDy=0;" edge="1" parent="1" source="ZrvgN2DBzf6jPBexT-yE-9">
          <mxGeometry x="-0.1205" y="1" width="160" relative="1" as="geometry">
            <mxPoint x="378" y="285" as="sourcePoint" />
            <mxPoint x="480" y="230" as="targetPoint" />
            <mxPoint as="offset" />
          </mxGeometry>
        </mxCell>
        <mxCell id="ZrvgN2DBzf6jPBexT-yE-25" value="&amp;lt;&amp;lt;Include&amp;gt;&amp;gt;" style="endArrow=open;endSize=12;dashed=1;html=1;rounded=0;entryX=0;entryY=0.5;entryDx=0;entryDy=0;exitX=1;exitY=0.5;exitDx=0;exitDy=0;" edge="1" parent="1" source="ZrvgN2DBzf6jPBexT-yE-10" target="ZrvgN2DBzf6jPBexT-yE-21">
          <mxGeometry x="-0.1205" y="1" width="160" relative="1" as="geometry">
            <mxPoint x="388" y="295" as="sourcePoint" />
            <mxPoint x="510" y="260" as="targetPoint" />
            <mxPoint as="offset" />
          </mxGeometry>
        </mxCell>
        <mxCell id="ZrvgN2DBzf6jPBexT-yE-26" value="애완 용품&lt;div&gt;서비스&lt;/div&gt;" style="ellipse;whiteSpace=wrap;html=1;" vertex="1" parent="1">
          <mxGeometry x="590" y="60" width="110" height="50" as="geometry" />
        </mxCell>
        <mxCell id="ZrvgN2DBzf6jPBexT-yE-27" style="edgeStyle=orthogonalEdgeStyle;rounded=0;orthogonalLoop=1;jettySize=auto;html=1;entryX=0.5;entryY=1;entryDx=0;entryDy=0;endArrow=block;endFill=0;" edge="1" parent="1" source="ZrvgN2DBzf6jPBexT-yE-28" target="ZrvgN2DBzf6jPBexT-yE-26">
          <mxGeometry relative="1" as="geometry" />
        </mxCell>
        <mxCell id="ZrvgN2DBzf6jPBexT-yE-28" value="&lt;div&gt;물품&lt;/div&gt;등록" style="ellipse;whiteSpace=wrap;html=1;" vertex="1" parent="1">
          <mxGeometry x="600" y="150" width="40" height="40" as="geometry" />
        </mxCell>
        <mxCell id="ZrvgN2DBzf6jPBexT-yE-29" style="edgeStyle=orthogonalEdgeStyle;rounded=0;orthogonalLoop=1;jettySize=auto;html=1;entryX=0.5;entryY=1;entryDx=0;entryDy=0;endArrow=block;endFill=0;" edge="1" parent="1" source="ZrvgN2DBzf6jPBexT-yE-30" target="ZrvgN2DBzf6jPBexT-yE-26">
          <mxGeometry relative="1" as="geometry" />
        </mxCell>
        <mxCell id="ZrvgN2DBzf6jPBexT-yE-30" value="&lt;div&gt;물품&lt;/div&gt;조회" style="ellipse;whiteSpace=wrap;html=1;" vertex="1" parent="1">
          <mxGeometry x="650" y="150" width="40" height="40" as="geometry" />
        </mxCell>
        <mxCell id="ZrvgN2DBzf6jPBexT-yE-31" style="edgeStyle=orthogonalEdgeStyle;rounded=0;orthogonalLoop=1;jettySize=auto;html=1;entryX=0.5;entryY=1;entryDx=0;entryDy=0;endArrow=block;endFill=0;" edge="1" parent="1" source="ZrvgN2DBzf6jPBexT-yE-32" target="ZrvgN2DBzf6jPBexT-yE-26">
          <mxGeometry relative="1" as="geometry" />
        </mxCell>
        <mxCell id="ZrvgN2DBzf6jPBexT-yE-32" value="&lt;div&gt;물품&lt;/div&gt;수정" style="ellipse;whiteSpace=wrap;html=1;" vertex="1" parent="1">
          <mxGeometry x="700" y="150" width="40" height="40" as="geometry" />
        </mxCell>
        <mxCell id="ZrvgN2DBzf6jPBexT-yE-33" style="edgeStyle=orthogonalEdgeStyle;rounded=0;orthogonalLoop=1;jettySize=auto;html=1;entryX=0.5;entryY=1;entryDx=0;entryDy=0;endArrow=block;endFill=0;" edge="1" parent="1" source="ZrvgN2DBzf6jPBexT-yE-34" target="ZrvgN2DBzf6jPBexT-yE-26">
          <mxGeometry relative="1" as="geometry">
            <Array as="points">
              <mxPoint x="770" y="130" />
              <mxPoint x="645" y="130" />
            </Array>
          </mxGeometry>
        </mxCell>
        <mxCell id="ZrvgN2DBzf6jPBexT-yE-34" value="&lt;div&gt;물품&lt;/div&gt;삭제" style="ellipse;whiteSpace=wrap;html=1;" vertex="1" parent="1">
          <mxGeometry x="750" y="150" width="40" height="40" as="geometry" />
        </mxCell>
        <mxCell id="ZrvgN2DBzf6jPBexT-yE-35" value="use" style="html=1;verticalAlign=bottom;endArrow=open;curved=0;rounded=0;entryX=1;entryY=0.5;entryDx=0;entryDy=0;exitX=0.5;exitY=0.65;exitDx=0;exitDy=0;exitPerimeter=0;endFill=0;" edge="1" parent="1" source="ZrvgN2DBzf6jPBexT-yE-5" target="ZrvgN2DBzf6jPBexT-yE-26">
          <mxGeometry width="80" relative="1" as="geometry">
            <mxPoint x="490" y="320" as="sourcePoint" />
            <mxPoint x="570" y="320" as="targetPoint" />
          </mxGeometry>
        </mxCell>
        <mxCell id="ZrvgN2DBzf6jPBexT-yE-36" value="&amp;lt;&amp;lt;Include&amp;gt;&amp;gt;" style="endArrow=open;endSize=12;dashed=1;html=1;rounded=0;entryX=1;entryY=0;entryDx=0;entryDy=0;exitX=0;exitY=0.5;exitDx=0;exitDy=0;" edge="1" parent="1" source="ZrvgN2DBzf6jPBexT-yE-26" target="ZrvgN2DBzf6jPBexT-yE-21">
          <mxGeometry x="-0.1205" y="1" width="160" relative="1" as="geometry">
            <mxPoint x="433.5" y="165" as="sourcePoint" />
            <mxPoint x="534.1421356237311" y="235.85786437626894" as="targetPoint" />
            <mxPoint as="offset" />
          </mxGeometry>
        </mxCell>
        <mxCell id="ZrvgN2DBzf6jPBexT-yE-37" value="계정&lt;div&gt;전환&lt;/div&gt;" style="ellipse;whiteSpace=wrap;html=1;" vertex="1" parent="1">
          <mxGeometry x="510" width="50" height="50" as="geometry" />
        </mxCell>
        <mxCell id="ZrvgN2DBzf6jPBexT-yE-38" value="&amp;lt;&amp;lt;Include&amp;gt;&amp;gt;" style="endArrow=open;endSize=12;dashed=1;html=1;rounded=0;entryX=1;entryY=0.5;entryDx=0;entryDy=0;exitX=0;exitY=0.5;exitDx=0;exitDy=0;" edge="1" parent="1" source="ZrvgN2DBzf6jPBexT-yE-26" target="ZrvgN2DBzf6jPBexT-yE-37">
          <mxGeometry x="-0.1205" y="1" width="160" relative="1" as="geometry">
            <mxPoint x="600" y="95" as="sourcePoint" />
            <mxPoint x="544" y="246" as="targetPoint" />
            <mxPoint as="offset" />
          </mxGeometry>
        </mxCell>
        <mxCell id="ZrvgN2DBzf6jPBexT-yE-39" value="USE" style="html=1;verticalAlign=bottom;endArrow=open;curved=0;rounded=0;entryX=0;entryY=0.5;entryDx=0;entryDy=0;endFill=0;exitX=0.5;exitY=0.5;exitDx=0;exitDy=0;exitPerimeter=0;" edge="1" parent="1" source="ZrvgN2DBzf6jPBexT-yE-2" target="ZrvgN2DBzf6jPBexT-yE-40">
          <mxGeometry x="-0.0083" width="80" relative="1" as="geometry">
            <mxPoint x="150" y="150" as="sourcePoint" />
            <mxPoint x="260" y="205" as="targetPoint" />
            <mxPoint as="offset" />
          </mxGeometry>
        </mxCell>
        <mxCell id="ZrvgN2DBzf6jPBexT-yE-40" value="회원&lt;div&gt;가입&lt;/div&gt;" style="ellipse;whiteSpace=wrap;html=1;" vertex="1" parent="1">
          <mxGeometry x="414" y="20" width="50" height="50" as="geometry" />
        </mxCell>
      </root>
    </mxGraphModel>
  </diagram>
</mxfile>
